<?xml version="1.0" encoding="UTF-8"?>
<svg width="853px" height="1040px" viewBox="0 0 853 1040" version="1.1" xmlns="http://www.w3.org/2000/svg" xmlns:xlink="http://www.w3.org/1999/xlink">
    <!-- Generator: Sketch 50 (54983) - http://www.bohemiancoding.com/sketch -->
    <title>Group</title>
    <desc>Created with Sketch.</desc>
    <defs>
        <path d="M329.929415,97.1152673 C138.037523,178.196348 65.0645497,489.007159 113.713198,724.142294 C162.361847,959.277429 346.145631,1132.2504 667.767252,1007.92608 C989.388874,883.601754 911.010496,540.358511 805.60509,370.08824 C700.199685,199.81797 521.821306,16.0341863 329.929415,97.1152673 Z" id="path-1"></path>
        <filter x="-5.6%" y="-4.5%" width="113.8%" height="111.3%" filterUnits="objectBoundingBox" id="filter-2">
            <feOffset dx="10" dy="11" in="SourceAlpha" result="shadowOffsetOuter1"></feOffset>
            <feGaussianBlur stdDeviation="16.5" in="shadowOffsetOuter1" result="shadowBlurOuter1"></feGaussianBlur>
            <feColorMatrix values="0 0 0 0 0   0 0 0 0 0   0 0 0 0 0  0 0 0 0.238592618 0" type="matrix" in="shadowBlurOuter1"></feColorMatrix>
        </filter>
        <path d="M329.929415,97.1152673 C138.037523,178.196348 65.0645497,489.007159 113.713198,724.142294 C162.361847,959.277429 346.145631,1132.2504 667.767252,1007.92608 C989.388874,883.601754 911.010496,540.358511 805.60509,370.08824 C700.199685,199.81797 521.821306,16.0341863 329.929415,97.1152673 Z" id="path-3"></path>
        <filter x="-15.5%" y="-12.7%" width="130.9%" height="125.4%" filterUnits="objectBoundingBox" id="filter-4">
            <feGaussianBlur stdDeviation="101" in="SourceAlpha" result="shadowBlurInner1"></feGaussianBlur>
            <feOffset dx="-45" dy="-24" in="shadowBlurInner1" result="shadowOffsetInner1"></feOffset>
            <feComposite in="shadowOffsetInner1" in2="SourceAlpha" operator="arithmetic" k2="-1" k3="1" result="shadowInnerInner1"></feComposite>
            <feColorMatrix values="0 0 0 0 0   0 0 0 0 0   0 0 0 0 0  0 0 0 0.0668591486 0" type="matrix" in="shadowInnerInner1"></feColorMatrix>
        </filter>
        <path d="M329.929415,97.1152673 C138.037523,178.196348 65.0645497,489.007159 113.713198,724.142294 C162.361847,959.277429 346.145631,1132.2504 667.767252,1007.92608 C989.388874,883.601754 911.010496,540.358511 805.60509,370.08824 C700.199685,199.81797 521.821306,16.0341863 329.929415,97.1152673 Z" id="path-5"></path>
        <filter x="-12.6%" y="-10.3%" width="125.2%" height="120.7%" filterUnits="objectBoundingBox" id="filter-6">
            <feGaussianBlur stdDeviation="85.5" in="SourceAlpha" result="shadowBlurInner1"></feGaussianBlur>
            <feOffset dx="-30" dy="-21" in="shadowBlurInner1" result="shadowOffsetInner1"></feOffset>
            <feComposite in="shadowOffsetInner1" in2="SourceAlpha" operator="arithmetic" k2="-1" k3="1" result="shadowInnerInner1"></feComposite>
            <feColorMatrix values="0 0 0 0 0   0 0 0 0 0   0 0 0 0 0  0 0 0 0.138586957 0" type="matrix" in="shadowInnerInner1"></feColorMatrix>
        </filter>
        <radialGradient cx="33.3161252%" cy="45.8163575%" fx="33.3161252%" fy="45.8163575%" r="85.4231595%" gradientTransform="translate(0.333161,0.458164),scale(1.000000,0.821492),rotate(96.859751),scale(1.000000,0.570462),translate(-0.333161,-0.458164)" id="radialGradient-7">
            <stop stop-color="#FFFFFF" stop-opacity="0.388643569" offset="0%"></stop>
            <stop stop-color="#FFFFFF" stop-opacity="0" offset="100%"></stop>
        </radialGradient>
    </defs>
    <g id="Page-1" stroke="none" stroke-width="1" fill="none" fill-rule="evenodd">
        <g id="Group" transform="translate(-61.000000, -48.000000)">
            <g id="Path" transform="translate(498.355442, 563.373366) rotate(13.000000) translate(-498.355442, -563.373366) ">
                <use fill="black" fill-opacity="1" filter="url(#filter-2)" xlink:href="#path-1"></use>
                <use fill="#DBC96F" fill-rule="evenodd" xlink:href="#path-1"></use>
            </g>
            <g id="Path" transform="translate(498.355442, 563.373366) rotate(13.000000) translate(-498.355442, -563.373366) " fill="black" fill-opacity="1">
                <use filter="url(#filter-4)" xlink:href="#path-3"></use>
            </g>
            <g id="Path" transform="translate(498.355442, 563.373366) rotate(13.000000) translate(-498.355442, -563.373366) " fill="black" fill-opacity="1">
                <use filter="url(#filter-6)" xlink:href="#path-5"></use>
            </g>
            <path d="M329.929415,97.1152673 C138.037523,178.196348 65.0645497,489.007159 113.713198,724.142294 C162.361847,959.277429 346.145631,1132.2504 667.767252,1007.92608 C989.388874,883.601754 911.010496,540.358511 805.60509,370.08824 C700.199685,199.81797 521.821306,16.0341863 329.929415,97.1152673 Z" id="Path" fill="url(#radialGradient-7)" transform="translate(498.355442, 563.373366) rotate(13.000000) translate(-498.355442, -563.373366) "></path>
        </g>
    </g>
</svg>